# xmcd
#
# Track frame offsets:
# 150
# 19449
# 37280
# 48547
# 70556
# 91392
# 112891
# 135021
# 150042
# 174511
# 180550
# 200916
#
# Disc length: 2949 seconds
#
# Revision: 0
# Processed by: cddbd v1.4PL0 Copyright (c) Steve Scherf et al.
# Submitted via: Audion 3.0.2 (http://www.panic.com/audion/)
#
DISCID=970b830c
DTITLE=SINCLAIR - La Bonne Attitude
DYEAR=1900
DGENRE=
TTITLE0=Invincible
TTITLE1=LEpreuveDuTemps
TTITLE2=LeFou
TTITLE3=SoleilDeMarseille
TTITLE4=Hurrycane
TTITLE5=LaBonneAttitude
TTITLE6=SiCestBonCommeCa
TTITLE7=QuelquesMinutes
TTITLE8=SoulLovers
TTITLE9=Ensemble
TTITLE10=JattendsEnVain
TTITLE11=MonIdole
EXTD=
EXTT0=
EXTT1=
EXTT2=
EXTT3=
EXTT4=
EXTT5=
EXTT6=
EXTT7=
EXTT8=
EXTT9=
EXTT10=
EXTT11=
PLAYORDER=
